<?xml version="1.0" encoding="UTF-8"?>
<svg id="Layer_2" data-name="Layer 2" xmlns="http://www.w3.org/2000/svg" viewBox="0 0 48 44">
  <defs>
    <style>
      .cls-1 {
        stroke-width: 0px;
      }
    </style>
  </defs>
  <g id="Layer_1-2" data-name="Layer 1">
    <path class="cls-1" d="m0,12.02v26.98c0,2.76,2.24,5,5,5h38c2.76,0,5-2.24,5-5V12.02H0Zm10.4,25.38c0,.55-.45,1-1,1h-2.8c-.55,0-1-.45-1-1v-2.8c0-.55.45-1,1-1h2.8c.55,0,1,.45,1,1v2.8Zm0-9c0,.55-.45,1-1,1h-2.8c-.55,0-1-.45-1-1v-2.8c0-.55.45-1,1-1h2.8c.55,0,1,.45,1,1v2.8Zm8,9c0,.55-.45,1-1,1h-2.8c-.55,0-1-.45-1-1v-2.8c0-.55.45-1,1-1h2.8c.55,0,1,.45,1,1v2.8Zm0-9c0,.55-.45,1-1,1h-2.8c-.55,0-1-.45-1-1v-2.8c0-.55.45-1,1-1h2.8c.55,0,1,.45,1,1v2.8Zm0-9c0,.55-.45,1-1,1h-2.8c-.55,0-1-.45-1-1v-2.8c0-.55.45-1,1-1h2.8c.55,0,1,.45,1,1v2.8Zm8,18c0,.55-.45,1-1,1h-2.8c-.55,0-1-.45-1-1v-2.8c0-.55.45-1,1-1h2.8c.55,0,1,.45,1,1v2.8Zm0-9c0,.55-.45,1-1,1h-2.8c-.55,0-1-.45-1-1v-2.8c0-.55.45-1,1-1h2.8c.55,0,1,.45,1,1v2.8Zm0-9c0,.55-.45,1-1,1h-2.8c-.55,0-1-.45-1-1v-2.8c0-.55.45-1,1-1h2.8c.55,0,1,.45,1,1v2.8Zm8,18c0,.55-.45,1-1,1h-2.8c-.55,0-1-.45-1-1v-2.8c0-.55.45-1,1-1h2.8c.55,0,1,.45,1,1v2.8Zm0-9c0,.55-.45,1-1,1h-2.8c-.55,0-1-.45-1-1v-2.8c0-.55.45-1,1-1h2.8c.55,0,1,.45,1,1v2.8Zm0-9c0,.55-.45,1-1,1h-2.8c-.55,0-1-.45-1-1v-2.8c0-.55.45-1,1-1h2.8c.55,0,1,.45,1,1v2.8Zm8,9c0,.55-.45,1-1,1h-2.8c-.55,0-1-.45-1-1v-2.8c0-.55.45-1,1-1h2.8c.55,0,1,.45,1,1v2.8Zm0-9c0,.55-.45,1-1,1h-2.8c-.55,0-1-.45-1-1v-2.8c0-.55.45-1,1-1h2.8c.55,0,1,.45,1,1v2.8Z"/>
    <path class="cls-1" d="m8,6c-.55,0-1-.45-1-1V1c0-.55.45-1,1-1s1,.45,1,1v4c0,.55-.45,1-1,1Z"/>
    <path class="cls-1" d="m43,2v3c0,1.65-1.35,3-3,3s-3-1.35-3-3v-3H11v3c0,1.65-1.35,3-3,3s-3-1.35-3-3v-3C2.24,2,0,4.24,0,7v3.02h48v-3.02c0-2.76-2.24-5-5-5Z"/>
    <path class="cls-1" d="m40,6c-.55,0-1-.45-1-1V1c0-.55.45-1,1-1s1,.45,1,1v4c0,.55-.45,1-1,1Z"/>
  </g>
</svg>