<?xml version="1.0" encoding="UTF-8"?>
<svg id="Layer_2" data-name="Layer 2" xmlns="http://www.w3.org/2000/svg" viewBox="0 0 22 22">
  <defs>
    <style>
      .cls-1 {
        stroke-width: 0px;
      }
    </style>
  </defs>
  <g id="Layer_1-2" data-name="Layer 1">
    <path class="cls-1" d="m12.4,11L21.7,1.7c.4-.4.4-1,0-1.4s-1-.4-1.4,0l-9.3,9.3L1.7.3C1.3-.1.7-.1.3.3S-.1,1.3.3,1.7l9.3,9.3L.3,20.3c-.4.4-.4,1,0,1.4.2.2.4.3.7.3s.5-.1.7-.3l9.3-9.3,9.3,9.3c.2.2.5.3.7.3s.5-.1.7-.3c.4-.4.4-1,0-1.4l-9.3-9.3Z"/>
  </g>
</svg>